<?xml version="1.0" standalone="no"?>
<!DOCTYPE svg PUBLIC "-//W3C//DTD SVG 20010904//EN"
 "http://www.w3.org/TR/2001/REC-SVG-20010904/DTD/svg10.dtd">
<svg version="1.0" xmlns="http://www.w3.org/2000/svg"
 width="2000.000000pt" height="2000.000000pt" viewBox="0 0 2000.000000 2000.000000"
 preserveAspectRatio="xMidYMid meet">
<metadata>
Created by potrace 1.14, written by Peter Selinger 2001-2017
</metadata>
<g transform="translate(0.000000,2000.000000) scale(0.100000,-0.100000)"
fill="#000000" stroke="none">
<path d="M15110 18979 c-61 -28 -217 -65 -353 -84 -177 -25 -162 -16 -266
-181 -62 -99 -91 -155 -91 -175 0 -43 59 -101 214 -212 71 -50 131 -97 133
-104 7 -19 -103 -27 -192 -15 -153 22 -262 102 -340 250 -49 94 -100 145 -166
168 -45 16 -83 19 -234 19 -250 0 -382 -28 -830 -175 -148 -49 -421 -132 -605
-185 -184 -53 -508 -148 -720 -210 -608 -180 -717 -203 -915 -191 -127 7 -199
28 -223 64 -14 22 -17 46 -14 155 1 72 -2 146 -9 169 -24 92 -93 122 -317 140
-171 14 -384 0 -502 -33 -109 -30 -205 -84 -278 -155 -77 -77 -112 -147 -112
-226 0 -71 23 -101 130 -171 84 -54 97 -75 75 -116 -69 -135 -754 -375 -1299
-456 -54 -8 -101 -16 -103 -19 -5 -5 32 -239 104 -646 54 -310 108 -520 148
-578 31 -43 92 -65 195 -70 83 -4 105 -1 174 22 106 36 170 80 248 173 134
158 180 187 298 187 63 0 84 -4 130 -28 106 -56 226 -213 270 -355 28 -88 26
-119 -11 -169 -40 -55 -151 -137 -219 -163 -58 -22 -76 -23 -345 -20 -134 2
-173 -1 -238 -18 -229 -60 -283 -151 -281 -476 1 -296 71 -693 212 -1208 31
-115 45 -180 38 -182 -6 -2 -85 -13 -176 -25 -471 -62 -1282 -216 -1765 -336
-462 -115 -636 -228 -623 -406 5 -63 27 -97 83 -125 64 -33 117 -86 146 -147
36 -75 38 -142 8 -223 -54 -144 -317 -316 -597 -388 -53 -14 -169 -35 -259
-47 -138 -19 -174 -20 -238 -11 -135 19 -290 116 -335 209 -19 37 -22 57 -18
109 9 110 55 177 209 306 69 59 129 144 136 195 5 38 3 41 -61 97 -73 65 -121
89 -228 116 -280 72 -955 47 -1617 -60 -68 -10 -125 -18 -126 -17 -1 2 -14 68
-30 147 -27 140 -27 152 -22 375 6 264 14 311 86 509 70 194 67 189 164 230
162 68 451 148 667 186 172 30 255 39 470 51 231 13 336 24 488 52 l112 20 0
64 c0 35 -2 64 -5 64 -3 0 -61 -11 -128 -25 -170 -34 -557 -74 -720 -75 l-39
0 57 52 c114 104 202 243 235 373 38 150 22 350 -39 481 -25 53 -44 74 -128
144 -54 45 -111 89 -128 97 -48 26 -121 20 -202 -16 -39 -17 -83 -31 -97 -31
-23 0 -26 4 -26 34 0 58 29 203 61 304 38 119 183 429 289 618 113 201 222
427 258 536 30 92 62 244 62 297 0 17 -29 63 -86 136 -123 158 -123 158 -163
151 l-34 -5 23 24 c13 14 43 34 67 46 39 19 53 20 150 14 151 -10 179 -1 269
87 111 107 183 219 320 490 68 136 124 252 124 257 0 6 -35 67 -77 137 l-77
126 -38 -6 c-57 -9 -242 -74 -337 -117 -46 -22 -87 -39 -91 -39 -4 0 -31 36
-60 79 -58 90 -62 91 -169 78 -127 -16 -292 -93 -414 -191 -56 -46 -138 -158
-158 -215 -30 -87 -521 -417 -691 -465 -33 -9 -77 -33 -107 -56 -76 -60 -340
-326 -483 -488 -107 -120 -129 -151 -142 -196 -18 -62 -20 -90 -6 -115 8 -15
-7 -40 -79 -132 -49 -63 -120 -150 -158 -194 -59 -67 -74 -80 -97 -77 -30 3
-133 -48 -169 -83 -12 -13 -89 -131 -171 -264 -82 -133 -154 -241 -160 -241
-6 0 -22 -9 -36 -20 -14 -11 -34 -20 -45 -20 -35 -1 -136 -66 -157 -101 -12
-19 -74 -129 -138 -244 -504 -903 -853 -1826 -1059 -2805 -29 -137 -36 -191
-29 -210 7 -19 3 -38 -16 -85 -26 -62 -57 -243 -95 -550 -47 -383 -61 -607
-68 -1066 -6 -420 4 -698 37 -1056 18 -198 19 -203 51 -249 l32 -47 -21 -49
-21 -50 34 -220 c151 -968 438 -1886 873 -2791 133 -276 362 -692 393 -715 10
-6 23 -29 29 -50 14 -42 133 -233 288 -462 1038 -1531 2490 -2747 4177 -3497
1783 -793 3759 -1038 5703 -708 301 52 815 167 957 215 l30 10 -35 -5 c-19 -2
-80 -7 -135 -9 l-100 -6 70 20 c45 12 115 21 197 24 121 4 136 7 305 61 369
118 738 257 1053 398 263 117 753 368 837 429 108 79 443 376 470 418 16 24
16 25 -3 10 -10 -8 -28 -22 -39 -31 -31 -27 -137 -84 -208 -113 -74 -29 -135
-34 -143 -11 -8 19 10 62 41 100 22 28 24 28 18 6 l-6 -24 80 5 c88 6 150 32
238 98 91 68 165 97 165 66 0 -49 -291 -324 -448 -425 -59 -38 -71 -54 -14
-20 1168 699 2123 1558 2942 2648 126 168 415 600 532 796 508 853 864 1706
1103 2640 60 233 84 352 114 560 35 244 81 658 97 870 6 82 19 134 30 122 2
-2 -12 -156 -31 -342 -20 -186 -34 -343 -32 -349 5 -14 53 342 77 562 19 182
19 183 -1 229 -19 46 -20 46 -41 27 -17 -16 -16 -11 7 26 16 25 37 57 47 71
16 22 21 55 30 205 13 237 4 974 -16 1224 -44 554 -130 1093 -257 1612 -45
183 -54 212 -86 252 -20 25 -41 46 -47 46 -14 0 -211 -53 -340 -91 -54 -16
-115 -39 -135 -51 -97 -58 -166 -115 -208 -172 -50 -67 -51 -51 -3 49 37 76
118 168 192 216 52 33 83 44 225 79 23 6 64 25 91 44 56 38 113 50 162 36 19
-5 35 -8 38 -6 6 6 -102 346 -168 531 -286 796 -656 1529 -1127 2230 -268 399
-266 397 -323 422 -66 29 -69 29 -111 -3 -19 -14 -40 -29 -48 -33 -11 -7 -11
-20 4 -85 9 -43 15 -80 12 -82 -6 -6 -133 146 -233 278 -43 56 -116 148 -164
203 -104 121 -186 223 -266 329 -51 69 -59 86 -60 125 -2 113 -79 228 -280
420 -173 166 -304 247 -435 271 -58 11 -63 10 -85 -11 l-23 -22 -43 28 c-88
58 -499 374 -752 579 -68 55 -117 86 -154 98 -65 21 -56 22 -112 -3z m-11040
-677 c0 -4 -18 -26 -41 -47 -23 -22 -66 -74 -97 -115 -30 -41 -88 -111 -127
-155 -40 -44 -140 -175 -222 -290 -82 -116 -179 -249 -215 -297 -69 -90 -111
-158 -123 -195 -6 -22 -6 -22 30 -7 20 8 59 16 88 17 43 2 52 -1 55 -17 2 -10
-1 -28 -6 -40 -6 -11 -31 -64 -56 -118 -25 -53 -57 -105 -71 -117 -25 -19
-110 -39 -121 -28 -3 3 11 31 32 62 42 66 78 144 70 152 -3 3 -40 -4 -84 -16
-77 -21 -122 -26 -122 -15 0 3 11 20 24 37 13 18 33 50 44 73 11 22 57 89 102
149 81 107 126 182 116 192 -2 3 -33 -6 -68 -20 -94 -38 -219 -70 -229 -60
-13 13 77 167 142 245 38 46 47 63 37 70 -10 6 -7 13 12 29 31 26 105 64 144
73 l28 7 -27 -33 c-116 -143 -203 -273 -192 -285 3 -2 25 2 49 10 23 8 69 20
100 26 68 15 97 36 134 98 39 68 235 315 314 398 81 83 97 110 79 131 -6 8 -9
17 -6 20 8 8 178 71 195 73 6 1 12 -3 12 -7z m11407 -316 c81 -27 287 -170
367 -255 35 -37 46 -38 72 -10 10 12 52 48 93 81 l74 59 24 -23 c14 -13 65
-73 114 -134 49 -61 110 -126 135 -145 25 -19 55 -46 65 -61 l19 -26 -29 -21
c-16 -12 -51 -26 -78 -32 l-49 -12 -82 62 c-61 46 -90 76 -113 116 -47 84 -70
94 -98 42 -13 -24 -11 -29 50 -96 80 -90 175 -222 205 -286 16 -34 24 -68 24
-108 0 -53 -3 -61 -40 -100 -21 -24 -63 -56 -92 -72 -123 -65 -148 -86 -219
-187 -129 -181 -219 -214 -374 -138 -91 44 -173 125 -307 304 -251 333 -322
481 -323 671 0 79 3 96 27 140 59 111 156 191 288 235 84 28 153 27 247 -4z
m-5028 -676 c45 -13 50 -23 44 -85 -5 -47 -3 -55 24 -85 28 -32 31 -33 64 -21
19 7 66 18 104 26 98 19 119 28 175 81 l50 47 65 -18 c75 -20 174 -65 193 -87
9 -12 10 -22 1 -44 -7 -17 -12 -110 -13 -229 l-2 -200 -37 -109 c-44 -128
-119 -276 -187 -367 -49 -66 -276 -286 -317 -307 -45 -25 -44 -10 4 41 130
138 220 321 299 606 29 106 34 140 34 230 0 114 -13 230 -31 273 -15 36 -39
42 -94 24 -25 -9 -54 -16 -65 -16 -11 0 -115 -30 -232 -66 -117 -37 -253 -77
-303 -91 -130 -35 -130 -35 -80 -135 23 -46 57 -108 77 -138 39 -62 58 -110
58 -150 0 -40 -44 -46 -131 -18 l-68 21 -71 150 c-92 194 -117 230 -169 245
-55 17 -58 28 -14 50 57 29 97 35 159 22 53 -11 62 -10 196 31 77 23 149 50
159 58 18 16 18 18 -9 73 -38 76 -58 97 -109 110 -24 5 -43 15 -43 20 0 5 13
23 29 39 28 28 33 29 118 29 48 0 104 -4 122 -10z m1348 -269 c51 -24 63 -54
34 -85 -11 -12 -29 -47 -40 -78 -10 -30 -31 -74 -46 -97 -27 -40 -27 -42 -10
-61 10 -11 19 -39 21 -65 2 -33 27 -97 87 -223 47 -97 91 -201 97 -231 12 -49
11 -55 -6 -68 -25 -18 -37 -17 -94 12 -59 30 -63 35 -71 105 -4 37 -25 93 -63
171 -31 64 -56 120 -56 125 0 5 -7 20 -16 32 l-16 23 -66 -72 c-102 -110 -280
-244 -299 -225 -3 3 33 42 79 88 171 169 298 414 298 573 0 41 -4 53 -22 64
-22 14 -22 14 -3 22 39 15 148 9 192 -10z m-9049 -1490 c86 -10 101 -24 102
-93 1 -141 -146 -390 -372 -631 -122 -131 -211 -185 -159 -96 11 19 34 79 51
134 51 165 147 406 225 570 19 39 38 82 44 98 12 30 8 29 109 18z m15040 -302
c56 -27 106 -91 171 -218 113 -220 189 -453 228 -701 25 -162 25 -498 0 -590
-40 -145 -100 -235 -190 -282 -33 -18 -58 -22 -117 -22 -97 0 -161 25 -294
115 -271 182 -419 363 -586 715 -110 233 -121 289 -28 151 22 -34 71 -93 107
-132 36 -38 104 -117 151 -174 209 -257 434 -371 633 -320 98 24 182 125 194
233 5 40 3 44 -28 64 -49 30 -95 81 -198 221 -258 347 -336 589 -264 811 12
39 31 69 66 103 56 55 85 59 155 26z m-16034 -115 c18 -48 -6 -117 -82 -231
-19 -29 -33 -55 -31 -58 3 -2 22 0 44 5 22 5 94 10 160 10 l120 1 110 119
c121 131 148 146 159 86 4 -19 4 -51 2 -73 -3 -21 -11 -85 -17 -143 l-12 -105
-67 -71 c-36 -39 -77 -92 -90 -119 -22 -46 -22 -49 -5 -61 10 -7 43 -18 73
-25 49 -10 60 -9 90 7 19 10 55 47 80 83 63 87 109 134 123 125 15 -9 5 -93
-16 -133 -23 -46 -70 -95 -152 -162 -71 -58 -74 -60 -117 -54 -56 9 -101 36
-127 77 -18 30 -20 43 -14 138 7 124 21 153 114 245 59 58 61 61 61 112 0 63
-13 68 -51 18 -15 -20 -72 -82 -127 -139 l-100 -105 -130 -5 c-71 -4 -180 -13
-243 -21 -62 -8 -125 -15 -141 -15 -27 0 -28 0 -14 33 8 17 22 57 31 87 37
122 189 315 287 364 60 30 74 32 82 10z m17243 -282 c15 -62 15 -66 -2 -78
-14 -10 -17 -23 -13 -59 3 -25 4 -45 3 -45 -2 0 -16 37 -30 81 -23 69 -26 87
-17 118 6 20 14 50 18 66 l6 30 9 -24 c6 -14 17 -54 26 -89z m-15008 -307
c104 -25 103 -30 -16 -54 -59 -12 -168 -36 -240 -54 -73 -19 -133 -31 -133
-27 0 12 95 97 128 114 71 37 162 44 261 21z m9217 -582 c8 -29 10 -27 -57
-61 -78 -39 -96 -81 -115 -258 -8 -77 -21 -177 -28 -224 -8 -47 -17 -116 -20
-155 -19 -221 -118 -1058 -134 -1134 -5 -22 -15 -37 -29 -42 -19 -7 -29 1 -74
58 -29 37 -109 127 -178 201 -69 74 -157 175 -194 225 -63 86 -112 137 -129
137 -5 0 -8 -9 -8 -20 0 -11 -20 -98 -44 -192 -24 -95 -63 -270 -87 -388 -23
-118 -47 -218 -53 -222 -22 -15 -54 -7 -70 17 -10 15 -50 63 -89 108 -40 45
-104 123 -142 172 -38 50 -135 169 -215 265 -80 96 -180 218 -222 270 -41 52
-92 111 -113 130 -20 19 -71 80 -113 135 -104 138 -181 211 -259 248 -60 27
-71 29 -143 24 -80 -5 -100 1 -100 33 0 25 60 48 157 61 57 7 146 32 254 69
91 32 192 64 224 71 53 12 59 11 71 -6 22 -30 17 -42 -33 -66 -53 -27 -93 -78
-93 -120 0 -30 5 -37 270 -354 97 -115 211 -255 255 -310 43 -55 119 -143 168
-195 49 -52 108 -121 130 -152 22 -31 44 -55 48 -52 11 7 29 73 29 108 0 16
15 95 34 175 19 80 40 181 46 225 l12 78 -40 42 c-21 22 -60 69 -85 102 -26
34 -85 100 -133 145 -47 46 -121 127 -164 180 -128 156 -167 182 -280 183 -74
1 -75 1 -78 29 -4 31 -5 30 94 46 39 6 147 35 240 65 229 74 264 83 275 65 20
-32 10 -54 -36 -73 -49 -20 -85 -57 -85 -89 0 -35 41 -89 148 -197 58 -58 125
-131 151 -164 l46 -58 12 28 c6 16 15 54 18 84 4 30 18 112 32 182 23 115 24
131 12 169 -20 60 -55 82 -137 87 -67 4 -82 12 -82 44 0 21 40 34 143 48 42 6
141 33 220 60 139 49 177 58 177 43 0 -5 3 -18 6 -30 5 -19 -2 -26 -53 -51
-32 -17 -66 -38 -75 -49 -27 -30 -55 -102 -68 -173 -6 -36 -27 -127 -46 -204
-19 -76 -42 -184 -50 -239 l-15 -100 34 -36 c18 -20 51 -58 72 -86 21 -27 85
-97 141 -155 56 -58 125 -136 155 -175 51 -68 67 -85 81 -85 12 0 28 100 28
178 0 42 7 113 14 157 8 44 22 179 31 301 8 121 22 261 30 310 19 116 20 294
1 339 -18 43 -35 51 -119 60 -66 7 -97 23 -97 49 0 16 52 34 125 42 81 8 289
61 334 83 42 22 59 18 67 -16z m5174 -1460 c37 -115 65 -278 75 -428 11 -167
33 -202 124 -192 118 12 282 112 339 207 18 30 39 75 47 100 10 32 14 38 14
20 1 -41 -25 -127 -55 -177 -108 -185 -363 -311 -462 -228 -65 55 -88 158
-122 552 -11 128 -23 254 -26 280 l-5 48 20 -43 c11 -23 34 -86 51 -139z m587
45 c-3 -8 -6 -5 -6 6 -1 11 2 17 5 13 3 -3 4 -12 1 -19z m10 -40 c-3 -8 -6 -5
-6 6 -1 11 2 17 5 13 3 -3 4 -12 1 -19z m10 -65 c-3 -10 -5 -4 -5 12 0 17 2
24 5 18 2 -7 2 -21 0 -30z m-17996 -53 c-21 -38 -26 -90 -15 -149 4 -21 22
-44 49 -67 38 -31 55 -37 180 -59 155 -28 208 -52 255 -117 62 -85 79 -169 80
-379 0 -4 23 -9 50 -13 70 -9 177 -44 183 -59 3 -7 0 -38 -5 -70 -10 -55 -11
-57 -40 -57 -41 0 -125 22 -303 80 -82 27 -171 52 -197 55 -46 7 -48 6 -48
-16 0 -13 -7 -87 -15 -164 -8 -77 -15 -185 -15 -241 0 -97 1 -101 25 -114 14
-7 27 -11 28 -9 2 2 23 33 47 68 53 79 116 143 137 139 27 -5 82 -119 108
-223 61 -240 36 -482 -67 -636 -71 -106 -158 -140 -267 -104 -146 48 -249 229
-295 520 -29 182 -49 776 -27 789 19 12 35 -53 38 -159 8 -341 43 -544 123
-711 47 -98 123 -174 193 -194 42 -11 50 -10 100 13 84 38 128 109 148 239 11
69 -2 203 -20 221 -5 5 -34 -25 -64 -66 -60 -80 -92 -108 -148 -126 -78 -25
-116 14 -145 148 -19 90 -17 174 6 385 11 99 20 202 20 230 l0 51 -160 49
-160 49 6 41 c3 23 7 55 10 73 l5 32 107 -39 c59 -21 183 -59 275 -85 182 -51
218 -52 254 -12 39 42 37 59 -17 115 -28 29 -60 56 -73 61 -12 4 -72 16 -133
26 -67 10 -127 26 -150 39 -49 27 -107 104 -128 168 -29 91 -15 222 35 319 21
41 21 41 36 19 14 -20 14 -25 -6 -60z m18690 -193 c-15 -37 -35 -43 -67 -18
-47 37 -53 19 -48 -157 11 -414 60 -687 126 -708 26 -8 36 7 44 66 10 79 29
143 41 147 12 4 27 -39 38 -112 l6 -40 -15 31 c-22 48 -33 49 -41 2 -15 -86
-61 -188 -86 -188 -5 0 -20 17 -33 38 -53 82 -87 324 -108 775 -14 300 -11
313 42 262 39 -37 59 -27 80 38 l15 47 8 -77 c6 -52 5 -87 -2 -106z m-694 56
c-3 -10 -5 -4 -5 12 0 17 2 24 5 18 2 -7 2 -21 0 -30z m162 -629 c27 -6 33
-13 46 -58 9 -28 20 -118 25 -201 6 -82 17 -199 25 -260 28 -219 38 -364 37
-550 -1 -120 5 -232 15 -305 15 -116 15 -154 -6 -455 -9 -131 -36 -329 -47
-347 -23 -37 -27 43 -25 542 1 322 -2 530 -7 526 -10 -6 -77 -88 -188 -231
l-71 -91 -6 -254 c-8 -331 -32 -530 -63 -530 -12 0 -14 30 -14 173 0 96 -3
255 -7 354 l-6 181 -65 -51 c-36 -28 -78 -69 -94 -92 -39 -54 -65 -59 -146
-30 -72 26 -94 47 -90 84 3 20 13 26 73 41 98 25 138 44 235 108 101 67 398
357 424 414 19 42 21 133 6 252 -6 45 -17 158 -26 252 -8 94 -21 211 -28 259
l-13 88 -62 56 c-61 58 -70 76 -51 112 11 20 65 26 129 13z m-13116 -230 c91
-15 178 -37 217 -53 77 -32 186 -101 252 -160 100 -89 206 -265 226 -374 51
-276 42 -416 -37 -591 -71 -156 -208 -302 -359 -379 l-92 -48 0 -49 0 -50 43
0 c23 0 83 9 132 19 50 11 155 33 235 50 83 18 155 39 170 49 40 30 67 77 74
131 6 45 9 51 31 51 25 0 30 -9 40 -75 4 -22 19 -96 35 -165 43 -188 43 -197
15 -216 -14 -9 -64 -19 -122 -25 -54 -5 -120 -13 -148 -18 -27 -6 -86 -15
-130 -21 -44 -6 -146 -24 -227 -41 -80 -17 -163 -29 -185 -27 l-38 3 -17 165
c-9 91 -19 188 -22 217 l-6 51 44 26 c96 56 194 198 232 338 24 87 29 259 10
365 -21 124 -69 270 -119 368 -80 154 -247 290 -420 340 -182 53 -406 -14
-559 -167 -54 -55 -78 -89 -117 -171 -60 -125 -81 -214 -81 -350 0 -182 42
-361 127 -535 73 -151 182 -248 310 -278 31 -7 62 -19 69 -26 15 -15 127 -418
119 -426 -11 -12 -790 -140 -799 -132 -12 12 -89 419 -82 436 11 30 43 15 55
-25 14 -48 57 -86 114 -102 50 -14 194 0 322 30 44 11 106 22 137 26 70 9 81
19 68 67 -11 38 -29 48 -85 48 -55 0 -148 29 -240 74 -263 130 -444 440 -445
762 0 112 13 187 50 280 65 162 183 312 315 401 133 89 310 163 485 202 173
38 207 38 403 5z m12798 -61 c6 -15 8 -35 6 -44 -4 -14 2 -16 34 -12 36 5 43
2 88 -43 77 -78 95 -137 96 -309 0 -121 -3 -150 -24 -213 -43 -130 -127 -220
-222 -236 -70 -12 -134 60 -179 203 -52 163 0 405 116 539 35 42 36 45 25 81
-16 55 -14 61 19 61 24 0 33 -6 41 -27z m-2531 -488 c39 -99 115 -274 170
-390 89 -189 97 -211 83 -222 -9 -7 -19 -13 -23 -13 -12 0 -217 466 -305 694
-54 142 -56 150 -39 163 16 12 19 10 30 -19 7 -18 45 -114 84 -213z m1674
-582 c55 -232 47 -430 -24 -625 -55 -149 -126 -252 -193 -277 -16 -6 -101 -11
-192 -11 -177 0 -242 -9 -320 -46 -111 -51 -181 -139 -217 -270 -40 -147 -23
-570 31 -774 66 -246 177 -444 314 -558 55 -46 101 -96 131 -141 25 -38 46
-71 46 -74 0 -3 -14 -16 -31 -28 -27 -19 -30 -20 -22 -4 9 15 -1 28 -65 84
-148 128 -188 170 -236 250 -83 137 -153 356 -193 596 -14 85 -18 164 -17 345
0 207 3 244 22 312 53 193 139 295 305 361 44 17 82 22 252 27 255 8 274 14
327 116 94 179 121 426 73 659 -28 136 -28 138 -16 131 5 -3 16 -36 25 -73z
m-2966 -390 c-2 -23 -16 -35 -83 -71 -44 -24 -93 -59 -109 -79 -28 -33 -29
-39 -28 -122 2 -101 15 -171 72 -371 22 -79 63 -255 91 -390 28 -135 59 -279
69 -320 10 -41 31 -139 45 -218 30 -166 56 -243 92 -272 35 -27 101 -26 188 5
39 14 71 25 73 25 1 0 2 -13 2 -28 0 -27 -6 -31 -97 -67 -54 -21 -201 -82
-328 -135 -292 -123 -424 -168 -436 -149 -16 26 -9 34 52 59 96 38 164 92 185
145 22 58 15 151 -19 290 -14 55 -42 183 -62 285 -20 102 -47 228 -60 280 -28
111 -81 348 -90 403 -8 49 -19 47 -34 -5 -7 -24 -40 -95 -72 -158 -33 -63
-108 -221 -166 -350 -124 -275 -263 -557 -340 -687 -67 -116 -103 -195 -103
-232 0 -44 27 -121 51 -147 33 -35 80 -33 275 13 17 4 22 -1 26 -21 6 -30 18
-25 -417 -170 -154 -51 -318 -107 -365 -123 -47 -17 -100 -33 -118 -36 -31 -6
-33 -5 -30 19 3 21 15 30 83 57 103 41 140 68 167 120 33 65 21 204 -35 427
-25 96 -68 283 -97 415 -29 132 -63 283 -77 335 -13 52 -42 164 -64 249 -43
172 -64 213 -120 241 -47 24 -93 25 -185 4 -39 -10 -79 -14 -88 -11 -19 7 -22
46 -3 51 6 2 48 16 92 31 44 14 155 49 247 75 91 27 226 74 300 103 138 57
231 87 267 87 27 0 30 -48 4 -57 -130 -43 -216 -111 -229 -179 -12 -63 4 -184
41 -319 20 -71 60 -234 90 -361 30 -127 63 -264 74 -305 11 -41 25 -112 31
-159 6 -47 16 -102 22 -123 10 -34 13 -36 28 -22 10 9 31 44 48 78 143 291
342 709 397 832 37 82 100 215 140 296 41 80 81 170 89 201 16 55 16 55 -14
129 -46 114 -89 134 -219 104 -111 -25 -126 -25 -126 4 0 19 8 26 40 36 22 7
65 24 96 38 30 14 141 55 245 92 104 37 241 91 304 120 138 63 139 63 168 64
20 1 23 -3 20 -26z m4498 -165 c-24 -51 -65 -147 -90 -213 -71 -182 -75 -191
-75 -178 -2 41 183 483 203 483 2 0 -15 -42 -38 -92z m-576 -843 c17 -21 7
-192 -20 -345 -30 -170 -26 -281 10 -300 25 -13 89 11 154 56 l51 36 -50 -52
c-102 -106 -209 -141 -255 -82 -21 25 -22 35 -17 127 3 58 16 142 31 201 32
125 43 232 27 262 -22 41 -31 33 -164 -143 -264 -349 -605 -703 -965 -999 -66
-55 -86 -66 -93 -55 -5 8 -8 17 -6 21 1 3 101 89 222 189 230 192 513 465 631
609 39 47 137 170 218 273 128 162 179 215 207 217 4 0 12 -7 19 -15z m-17750
-617 c49 -15 92 -41 191 -119 167 -133 335 -336 451 -548 88 -161 112 -183
218 -205 47 -10 93 -22 102 -27 17 -9 48 -94 48 -132 0 -16 -5 -18 -27 -14
-16 3 -61 13 -102 22 -41 8 -76 13 -79 10 -3 -2 0 -17 6 -32 6 -15 14 -44 17
-63 28 -143 219 -720 299 -904 30 -66 57 -137 61 -156 7 -33 7 -34 -11 -20
-105 79 -173 200 -228 401 -22 77 -37 88 -77 55 -103 -87 -275 52 -425 344
-35 67 -38 83 -39 151 0 70 2 79 25 98 16 13 39 20 65 21 78 0 114 -18 193
-96 41 -41 79 -74 83 -74 5 0 0 19 -10 43 -20 48 -44 134 -61 220 -10 51 -14
57 -36 57 -14 0 -73 18 -132 41 -59 22 -159 58 -222 79 -63 21 -144 52 -179
69 -36 17 -66 29 -67 28 -4 -4 32 -138 81 -301 82 -278 182 -560 275 -774 17
-41 28 -77 25 -80 -4 -4 -12 1 -19 12 -6 10 -36 53 -66 96 -54 75 -61 94 -197
501 -78 233 -152 463 -163 511 -22 87 -22 87 -69 110 -52 26 -77 68 -88 145
l-6 47 30 -22 c16 -11 42 -24 57 -28 l28 -7 -31 43 c-57 78 -102 251 -100 379
1 76 9 98 43 120 30 20 65 20 136 -1z m16426 -918 c27 -127 13 -391 -32 -625
-19 -99 -75 -307 -81 -301 -2 2 3 28 12 58 27 91 63 262 81 380 19 133 14 350
-10 438 -9 30 -15 84 -15 120 l1 65 15 -35 c8 -19 21 -64 29 -100z m1261 44
c33 -9 47 -63 40 -155 l-6 -78 -80 -76 c-95 -91 -118 -108 -336 -249 -192
-124 -258 -161 -263 -147 -6 18 75 174 149 286 187 287 380 450 496 419z
m-12592 -438 c85 -38 155 -112 155 -163 0 -10 -19 -31 -41 -48 -64 -47 -98
-90 -316 -409 -31 -45 -43 -86 -25 -86 4 0 34 -21 67 -46 33 -25 77 -54 98
-65 l37 -19 41 62 c22 35 68 117 101 183 51 102 59 126 55 160 -3 22 -7 47
-11 55 -20 52 69 60 154 14 64 -35 140 -106 140 -131 0 -11 -15 -27 -37 -38
-61 -33 -145 -124 -243 -266 -51 -74 -124 -167 -161 -206 -72 -77 -129 -149
-129 -166 0 -5 10 -6 23 -3 12 4 63 18 112 31 50 12 124 36 165 53 41 16 90
33 108 37 17 3 32 11 32 16 0 5 -25 33 -55 62 -49 48 -70 87 -46 87 5 0 40 -9
77 -21 88 -27 184 -77 257 -134 56 -45 57 -46 59 -100 0 -30 1 -61 2 -67 2
-20 -49 -21 -85 -2 -18 9 -56 38 -84 65 l-52 49 -154 -77 c-148 -74 -152 -77
-130 -91 12 -9 46 -32 74 -52 l52 -36 26 -114 c14 -63 42 -167 63 -230 41
-126 63 -255 52 -313 -6 -32 -11 -37 -35 -37 -21 0 -37 12 -71 53 -71 87 -90
137 -90 243 0 64 -7 121 -25 190 -26 103 -88 241 -116 258 -21 12 -148 -49
-206 -99 -41 -35 -43 -35 -75 -22 -70 30 -137 110 -153 183 -7 38 10 48 55 33
16 -6 34 -9 39 -7 18 6 182 202 202 240 28 55 25 67 -28 90 -199 85 -393 198
-393 228 0 20 31 23 107 10 l76 -13 22 27 c12 15 30 50 40 79 10 29 41 111 70
182 94 233 106 281 91 364 l-8 43 33 -7 c19 -4 57 -17 84 -29z m890 -75 c68
-39 175 -138 175 -162 0 -11 -14 -26 -38 -38 -52 -26 -116 -98 -199 -221 -39
-58 -78 -111 -87 -119 -27 -23 -18 -38 39 -66 l54 -27 83 17 c95 19 225 67
262 96 18 14 34 48 56 117 38 116 48 216 30 272 -7 22 -10 43 -6 47 11 11 125
16 139 6 6 -5 33 -17 59 -27 28 -10 57 -30 72 -51 l26 -34 -49 -41 c-36 -30
-57 -60 -80 -111 -17 -38 -31 -78 -31 -90 l0 -20 29 20 c36 26 131 51 193 51
39 0 50 -4 64 -25 8 -13 14 -32 12 -42 -4 -22 -175 -96 -275 -118 -85 -19
-105 -35 -67 -55 34 -19 42 -36 54 -121 6 -40 12 -74 14 -76 2 -2 32 6 67 17
47 16 81 21 130 18 160 -9 107 -82 -90 -124 -80 -17 -83 -19 -77 -43 3 -14 12
-64 21 -110 25 -130 31 -136 115 -106 42 15 202 21 246 9 22 -6 48 -49 39 -64
-15 -24 -186 -60 -284 -60 l-54 0 7 -47 c3 -25 19 -94 35 -152 16 -58 32 -117
35 -131 5 -25 6 -26 73 -19 37 4 96 19 130 33 73 31 161 34 241 11 51 -15 112
-64 112 -90 0 -28 -57 -38 -174 -31 -66 4 -132 2 -158 -3 -24 -6 -120 -19
-213 -30 -94 -11 -201 -27 -240 -35 -38 -8 -96 -18 -129 -21 -63 -8 -96 -30
-96 -66 0 -56 -41 -75 -92 -41 -37 24 -63 60 -97 131 -25 53 -30 78 -36 184
-5 91 -22 191 -65 397 -33 151 -64 305 -69 341 -6 36 -16 79 -21 95 -11 31
-89 104 -111 104 -6 0 -46 -33 -88 -74 -77 -75 -107 -96 -135 -96 -38 0 -6 74
82 185 59 75 166 286 202 399 20 60 22 81 16 161 -8 103 -8 103 59 104 27 1
56 -9 90 -28z m11553 -3 c18 -18 15 -105 -7 -189 -10 -41 -46 -132 -79 -204
-32 -71 -87 -200 -122 -285 -132 -328 -202 -436 -389 -608 -71 -65 -95 -82
-111 -77 -34 11 -24 61 34 175 60 116 185 266 253 304 33 19 41 32 64 96 14
41 53 131 87 198 55 112 80 189 97 293 8 51 -13 56 -83 17 -71 -39 -141 -97
-259 -215 -52 -51 -98 -93 -104 -93 -13 0 -11 10 26 130 31 103 44 123 103
163 25 18 78 59 117 92 119 102 153 127 233 171 80 44 119 53 140 32z m-1237
-495 c-12 -20 -14 -14 -5 12 4 9 9 14 11 11 3 -2 0 -13 -6 -23z m-386 -543
c-68 -69 -141 -96 -308 -115 -230 -27 -359 -55 -452 -101 -42 -21 -46 -21 -25
-4 50 41 180 98 267 118 48 12 150 28 225 36 146 17 216 38 288 86 25 16 47
30 50 30 2 0 -18 -22 -45 -50z m-10366 -320 c84 -32 182 -91 218 -131 42 -46
51 -110 19 -131 -24 -16 -75 -7 -108 19 -104 84 -206 198 -222 251 -10 29 -2
28 93 -8z m-463 -178 c10 -34 15 -89 15 -155 -2 -137 -10 -169 -44 -182 -38
-13 -56 0 -89 65 -36 68 -36 120 1 218 16 42 33 93 36 112 4 19 10 39 13 44 9
16 52 -47 68 -102z m8012 63 l22 -35 78 0 c42 0 142 11 222 25 140 24 266 31
327 19 20 -4 39 -20 63 -55 33 -49 34 -54 38 -167 2 -64 -1 -160 -8 -212 -6
-52 -15 -151 -21 -220 -5 -69 -16 -159 -23 -200 -8 -41 -24 -147 -36 -235 -12
-88 -26 -178 -31 -200 -5 -22 -13 -75 -19 -117 -5 -42 -19 -96 -31 -120 -29
-58 -94 -125 -151 -154 -44 -22 -98 -32 -98 -18 0 4 14 72 31 153 35 167 118
752 126 884 6 98 -8 165 -39 194 -26 24 -148 24 -272 0 -124 -24 -298 -23
-352 2 -73 33 -102 102 -85 198 22 118 102 236 186 274 22 10 42 19 45 19 3 0
15 -16 28 -35z m1756 -195 c-23 -108 -13 -310 17 -346 5 -6 6 -13 3 -16 -8 -8
20 -59 43 -80 10 -9 38 -21 61 -26 107 -24 283 51 580 247 158 104 259 166
242 148 -3 -3 -74 -57 -159 -120 -442 -330 -708 -409 -807 -240 -34 57 -43
168 -24 294 11 77 47 215 55 207 1 -1 -3 -32 -11 -68z m991 -92 c-22 -103
-214 -394 -385 -583 -211 -233 -421 -495 -548 -687 -70 -105 -98 -130 -36 -32
120 188 319 446 462 599 187 199 374 450 455 610 48 94 52 112 30 118 -14 4
-12 5 5 6 21 1 23 -2 17 -31z m175 -719 c0 -30 -95 -152 -232 -296 -49 -51
-88 -96 -88 -101 0 -11 -60 -35 -68 -27 -3 2 57 68 132 147 140 145 181 203
173 244 -3 18 2 25 22 33 36 13 61 13 61 0z m-14026 -204 c200 -77 319 -158
476 -322 120 -125 165 -203 157 -274 -6 -48 -6 -49 36 -77 23 -16 82 -50 131
-75 106 -57 326 -220 422 -314 39 -37 100 -94 136 -125 65 -57 128 -154 114
-176 -3 -6 -21 -13 -40 -16 -132 -25 -461 168 -779 457 -93 85 -127 128 -127
162 0 44 91 -13 130 -82 45 -79 186 -200 399 -342 99 -67 155 -95 209 -105 62
-11 26 51 -78 135 -36 28 -121 107 -190 174 -209 203 -293 264 -417 306 -60
20 -133 69 -133 90 0 5 16 9 35 9 25 0 35 4 35 15 0 26 -30 75 -74 124 -23 25
-65 76 -94 112 -115 148 -247 239 -349 242 -64 3 -65 -14 -8 -96 52 -74 72
-95 165 -164 63 -47 120 -115 102 -121 -11 -3 -158 104 -216 157 -38 36 -173
207 -194 248 -15 28 -15 66 0 81 20 20 55 14 152 -23z m12736 -649 c-26 -57
-63 -144 -81 -193 -49 -130 -58 -138 -189 -153 -41 -5 -84 -11 -95 -14 -11 -4
-5 1 14 9 19 9 72 22 119 29 94 13 91 10 117 101 21 73 146 325 160 325 2 0
-18 -47 -45 -104z m-7966 -471 c370 -58 736 -194 1076 -400 248 -150 367 -259
445 -409 40 -78 43 -102 15 -156 -33 -64 -112 -94 -325 -120 -198 -25 -453 39
-605 150 -91 66 -93 66 -69 21 28 -55 20 -96 -29 -143 -71 -68 -89 -73 -257
-72 -82 1 -179 7 -215 14 -132 23 -316 112 -438 210 -78 63 -102 101 -102 162
0 49 0 49 48 71 67 30 217 36 315 12 144 -35 257 -118 241 -179 -7 -31 -67
-56 -127 -55 l-42 1 37 10 c20 5 45 19 55 30 18 20 17 21 -17 49 -85 72 -225
108 -364 94 -59 -6 -73 -11 -90 -33 -25 -32 -23 -44 16 -93 68 -85 308 -170
488 -173 81 -1 255 19 308 35 49 16 82 66 82 126 0 27 3 52 6 56 4 3 25 -7 48
-22 134 -92 319 -151 474 -151 80 0 266 31 302 50 34 18 60 70 60 120 0 105
-114 242 -310 372 -338 224 -719 338 -1131 338 -82 0 -138 -4 -135 -9 4 -5 44
-31 91 -57 114 -64 139 -91 139 -151 l1 -48 -60 -22 c-83 -30 -146 -29 -253 6
-208 68 -328 159 -352 266 -6 26 -4 37 9 49 37 33 108 60 175 67 104 11 376 2
490 -16z m6940 -239 c4 -18 -4 -40 -33 -83 -21 -32 -65 -103 -97 -158 -63
-108 -150 -205 -183 -205 -29 0 -26 8 13 50 49 50 144 186 175 248 22 45 24
54 11 63 -23 15 -67 3 -165 -45 -113 -56 -194 -125 -188 -159 6 -32 -19 -52
-46 -37 -34 18 -25 54 27 117 58 69 191 153 292 183 36 11 76 27 90 35 14 8
41 14 61 15 31 0 38 -4 43 -24z m-340 -298 c-33 -64 -116 -177 -164 -222 -37
-35 -64 -50 -121 -67 -41 -12 -146 -50 -234 -84 -172 -67 -215 -81 -215 -66 0
5 24 23 53 39 55 31 137 114 137 139 0 19 -48 35 -84 28 -109 -22 -311 -107
-366 -154 l-25 -22 40 20 c45 21 138 41 197 41 49 0 51 -24 6 -76 -55 -63
-202 -123 -340 -139 -56 -7 -57 -7 -64 19 -5 22 2 36 42 83 122 143 487 304
687 303 47 0 64 -8 68 -30 4 -22 -29 -81 -60 -107 l-26 -22 79 24 c43 13 89
31 102 40 13 8 57 66 98 128 74 111 114 150 172 166 36 10 40 1 18 -41z
m-2478 -397 c-9 -16 -26 -42 -39 -57 -37 -45 -47 -69 -47 -118 0 -62 34 -101
108 -122 102 -30 152 -20 657 141 150 47 257 65 284 46 22 -14 -10 -79 -63
-128 -22 -21 -35 -31 -28 -24 31 37 -2 81 -59 81 -21 0 -137 -32 -256 -71
-285 -92 -356 -109 -489 -116 -164 -9 -227 18 -239 102 -8 50 6 87 62 167 22
32 46 71 53 87 11 28 25 37 58 40 10 1 9 -6 -2 -28z m-2894 -538 c21 -19 23
-42 6 -78 -13 -29 -25 -31 -55 -7 -33 25 -36 87 -5 95 30 8 35 7 54 -10z
m2767 -22 c10 -10 43 -28 73 -39 66 -25 291 -72 344 -72 54 0 32 -14 -54 -35
-81 -19 -111 -17 -282 16 -141 28 -189 55 -176 97 5 14 49 45 74 51 1 1 10 -7
21 -18z m-1676 -137 c156 -5 197 -10 197 -20 0 -8 7 -14 15 -14 8 0 22 -11 30
-24 18 -27 101 -67 193 -92 94 -26 81 -41 -45 -48 -60 -4 -123 -6 -142 -6 -18
0 -72 -6 -120 -14 -135 -23 -247 -30 -256 -17 -3 7 -1 18 5 26 11 13 7 15 -19
15 -53 0 -38 27 19 35 28 4 47 11 44 16 -7 13 -154 11 -232 -2 -70 -12 -68
-28 3 -30 44 -1 84 -13 69 -21 -9 -5 -175 17 -201 26 -7 3 -13 14 -13 25 0 24
4 25 149 46 131 19 188 19 207 1 33 -34 246 -48 275 -19 12 12 -5 17 -84 28
-59 9 -57 26 4 42 37 10 2 12 -217 12 -265 1 -384 -6 -334 -19 14 -4 52 -3 85
1 86 11 185 11 185 0 0 -23 -79 -36 -210 -36 -132 0 -180 10 -180 36 0 14 83
48 144 59 28 5 92 7 141 5 50 -3 179 -8 288 -11z"/>
<path d="M15235 17950 c-4 -6 2 -21 12 -33 43 -49 260 -288 337 -372 116 -125
361 -421 422 -510 l51 -74 29 18 c50 31 55 42 44 101 -10 51 -49 132 -70 145
-6 3 -56 66 -112 138 -115 149 -268 310 -373 395 -38 31 -95 78 -125 103 -86
74 -196 119 -215 89z"/>
<path d="M15039 17829 c-29 -55 4 -135 151 -364 251 -393 313 -476 443 -603
84 -81 124 -102 195 -102 42 0 50 3 65 29 22 38 21 54 -3 76 -11 10 -34 41
-52 69 -50 79 -300 397 -423 536 -60 69 -128 148 -149 175 -58 73 -189 205
-203 205 -7 0 -17 -10 -24 -21z"/>
<path d="M2612 15318 c-17 -40 -45 -109 -62 -153 -18 -44 -45 -111 -61 -148
-17 -38 -29 -73 -27 -78 6 -19 139 143 173 211 19 38 48 90 65 116 48 77 36
124 -33 124 -21 0 -29 -11 -55 -72z"/>
<path d="M17752 14883 c-30 -56 -18 -136 30 -206 40 -59 235 -257 253 -257 12
0 15 5 10 18 -4 9 -18 58 -31 109 -33 130 -75 204 -177 311 -44 45 -71 53 -85
25z"/>
<path d="M1603 14989 c-48 -23 -84 -62 -114 -120 l-19 -39 49 0 50 0 55 71
c81 102 73 135 -21 88z"/>
<path d="M18773 11106 c-49 -56 -63 -98 -70 -212 -9 -141 31 -250 101 -279 73
-31 148 59 165 200 11 96 -8 258 -37 302 -10 16 -57 33 -92 33 -21 0 -38 -11
-67 -44z"/>
<path d="M1105 8084 c-37 -57 -26 -142 41 -318 l36 -95 87 -37 c128 -55 492
-190 551 -204 28 -7 54 -9 57 -6 4 3 -7 21 -24 39 -17 17 -55 70 -85 117 -153
239 -383 455 -545 511 -75 25 -97 24 -118 -7z"/>
<path d="M1754 6960 c-28 -11 -74 -67 -74 -90 0 -10 17 -56 39 -102 39 -85 72
-123 118 -134 59 -15 164 84 162 153 -1 21 -4 48 -7 60 -10 30 -95 93 -150
109 -51 16 -59 16 -88 4z"/>
<path d="M18713 7191 c-89 -44 -186 -140 -258 -254 -17 -26 -15 -26 51 14 38
23 96 65 129 94 33 28 81 66 107 84 49 33 73 64 63 81 -9 15 -35 10 -92 -19z"/>
<path d="M7248 6186 c-32 -7 -60 -15 -63 -18 -3 -3 4 -25 15 -50 10 -24 27
-89 35 -144 9 -54 18 -101 21 -103 7 -8 154 38 204 63 25 13 44 29 43 37 -1 8
-12 52 -23 99 -27 111 -45 130 -119 129 -31 0 -82 -6 -113 -13z"/>
<path d="M7473 5844 c-29 -13 -83 -31 -120 -41 -38 -9 -71 -20 -76 -23 -9 -8
17 -159 37 -215 8 -25 19 -39 27 -36 8 2 55 14 106 26 88 21 143 46 143 64 0
5 -6 26 -14 48 -8 22 -20 75 -26 117 -7 42 -16 78 -19 80 -3 2 -30 -7 -58 -20z"/>
<path d="M7504 5495 c-39 -12 -92 -25 -118 -29 l-48 -8 6 -41 c4 -23 21 -95
38 -159 l31 -118 31 0 c17 0 82 9 144 21 129 24 121 14 84 119 -10 30 -27 97
-38 148 -21 106 -16 104 -130 67z"/>
<path d="M18190 5772 c-80 -100 -93 -141 -25 -75 33 32 83 119 73 128 -2 2
-24 -22 -48 -53z"/>
<path d="M7451 2954 c-50 -15 -81 -40 -81 -63 0 -58 77 -112 205 -146 123 -31
207 -12 234 54 13 29 11 33 -19 68 -74 85 -223 124 -339 87z"/>
<path d="M13570 2091 c-65 -21 -110 -48 -110 -67 0 -18 13 -18 90 7 67 21 100
42 100 66 0 17 -12 16 -80 -6z"/>
<path d="M10420 1265 c-54 -12 -52 -12 93 -16 81 -2 147 -3 147 -1 0 2 -16 10
-35 18 -41 17 -129 17 -205 -1z"/>
<path d="M10313 1243 c9 -2 23 -2 30 0 6 3 -1 5 -18 5 -16 0 -22 -2 -12 -5z"/>
<path d="M10220 1230 c-13 -9 -13 -10 0 -9 8 0 24 4 35 9 l20 9 -20 0 c-11 0
-27 -4 -35 -9z"/>
<path d="M6571 15815 c-88 -20 -184 -52 -263 -88 l-68 -30 0 -83 c0 -46 4 -84
8 -84 4 0 59 21 122 46 274 110 534 134 645 58 l36 -24 -12 23 c-33 62 -101
135 -150 162 -48 26 -65 30 -154 32 -60 1 -125 -3 -164 -12z"/>
<path d="M8425 15703 c-565 -182 -1183 -333 -1366 -333 -35 0 -50 -14 -69 -66
-8 -19 -5 -29 10 -44 18 -18 34 -20 134 -20 245 0 540 70 1219 291 l307 100 0
69 c0 60 -2 70 -17 69 -10 -1 -108 -30 -218 -66z"/>
</g>
</svg>
